<?xml version="1.0" standalone="no"?>
<!DOCTYPE svg PUBLIC "-//W3C//DTD SVG 20010904//EN"
 "http://www.w3.org/TR/2001/REC-SVG-20010904/DTD/svg10.dtd">
<svg version="1.0" xmlns="http://www.w3.org/2000/svg"
 width="166.000000pt" height="167.000000pt" viewBox="0 0 166.000000 167.000000"
 preserveAspectRatio="xMidYMid meet">

<g transform="translate(0.000000,167.000000) scale(0.100000,-0.100000)"
fill="#000000" stroke="none">
<path d="M859 1651 c12 -8 51 -4 51 5 0 2 -15 4 -32 4 -23 0 -29 -3 -19 -9z"/>
<path d="M1340 1476 c0 -2 8 -10 18 -17 15 -13 16 -12 3 4 -13 16 -21 21 -21
13z"/>
<path d="M911 1434 c0 -11 3 -14 6 -6 3 7 2 16 -1 19 -3 4 -6 -2 -5 -13z"/>
<path d="M1250 1375 c0 -14 4 -25 9 -25 4 0 6 11 3 25 -2 14 -6 25 -8 25 -2 0
-4 -11 -4 -25z"/>
<path d="M922 1360 c0 -14 2 -19 5 -12 2 6 2 18 0 25 -3 6 -5 1 -5 -13z"/>
<path d="M1440 1376 c0 -2 8 -10 18 -17 15 -13 16 -12 3 4 -13 16 -21 21 -21
13z"/>
<path d="M1218 1293 c6 -2 18 -2 25 0 6 3 1 5 -13 5 -14 0 -19 -2 -12 -5z"/>
<path d="M1102 1250 c0 -14 2 -19 5 -12 2 6 2 18 0 25 -3 6 -5 1 -5 -13z"/>
<path d="M1171 1254 c0 -11 3 -14 6 -6 3 7 2 16 -1 19 -3 4 -6 -2 -5 -13z"/>
<path d="M922 1120 c0 -14 2 -19 5 -12 2 6 2 18 0 25 -3 6 -5 1 -5 -13z"/>
<path d="M1250 1116 c0 -2 8 -10 18 -17 15 -13 16 -12 3 4 -13 16 -21 21 -21
13z"/>
<path d="M1058 803 c7 -3 16 -2 19 1 4 3 -2 6 -13 5 -11 0 -14 -3 -6 -6z"/>
<path d="M1388 803 c7 -3 16 -2 19 1 4 3 -2 6 -13 5 -11 0 -14 -3 -6 -6z"/>
<path d="M1183 793 c26 -2 68 -2 95 0 26 2 4 3 -48 3 -52 0 -74 -1 -47 -3z"/>
<path d="M1631 780 c-48 -86 -81 -129 -96 -124 -21 9 -19 28 10 74 14 22 25
41 25 43 0 2 -39 -5 -87 -16 -70 -16 -123 -21 -253 -21 -159 0 -230 10 -366
50 -19 5 -24 -1 -37 -43 -54 -165 -56 -420 -6 -605 l11 -41 25 56 c18 40 32
57 44 57 28 0 24 -27 -21 -119 l-41 -84 64 7 c120 12 247 54 355 117 76 46
231 200 274 274 68 119 123 294 116 369 l-3 31 -14 -25z m-369 -166 l31 -16
-20 -20 c-17 -16 -24 -18 -41 -9 -50 27 -77 9 -88 -57 l-7 -42 52 0 c48 0 51
-2 51 -25 0 -23 -3 -25 -49 -25 -48 0 -49 0 -56 -37 -4 -21 -11 -44 -17 -50
-8 -10 8 -13 76 -13 85 0 86 0 86 -25 l0 -26 -117 3 c-105 3 -118 5 -121 21
-2 10 4 27 13 37 9 9 19 34 22 54 5 32 3 36 -16 36 -16 0 -21 6 -21 25 0 18 5
25 20 25 14 0 21 9 25 38 10 60 26 92 54 107 35 19 85 19 123 -1z"/>
</g>
</svg>
